<?xml version="1.0" encoding="UTF-8" standalone="no"?>
<svg
   width="110.68791"
   height="194.49602"
   viewBox="0 0 110.68791 194.49602"
   fill="none"
   version="1.1"
   id="svg12"
   xmlns="http://www.w3.org/2000/svg"
   xmlns:svg="http://www.w3.org/2000/svg">
  <defs
     id="defs12" />
  <path
     d="M 55.340902,4.8279762e-6 C 48.036402,0.03643483 40.810402,1.5191148 34.075902,4.3636348 c -6.7345,2.84451 -12.8457,6.9953702 -17.9847,12.2148702 -5.1389,5.2194 -9.2049303,11.4056 -11.9657703,18.2051 -2.76084,6.7996 -4.16238003,14.0793 -4.12469003107,21.4236 v 18.5656 H 44.965002 v -26.8978 c -5e-4,-1.2632 0.2465,-2.5141 0.727,-3.6813 0.4805,-1.1672 1.185,-2.2277 2.0734,-3.121 0.8883,-0.8933 1.943,-1.6016 3.1037,-2.085 1.1608,-0.4833 2.4049,-0.7319 3.6613,-0.7317 h 1.621 c 1.2565,-2e-4 2.5007,0.2484 3.6616,0.7317 1.1608,0.4833 2.2156,1.1917 3.1041,2.085 0.8885,0.8933 1.5932,1.9538 2.0739,3.121 0.4807,1.1672 0.728,2.418 0.7278,3.6813 V 119.982 c 5.9048,0 11.7519,-1.17 17.2073,-3.441 5.4555,-2.272 10.4124,-5.602 14.5878,-9.8 4.175098,-4.198 7.487098,-9.181995 9.747098,-14.667095 2.259,-5.4851 3.422,-11.3642 3.422,-17.3011 v -18.5656 c 0.032,-14.8804 -5.796,-29.1686 -16.209998,-39.7418 -5.11,-5.2175 -11.2016,-9.3604002 -17.92,-12.1872402 -6.7183,-2.82684 -13.9291,-4.28122097 -21.2121,-4.2781599720238 z"
     fill="#000000"
     id="path1" />
  <path
     d="m 56.153602,156.489 h -1.621 c -1.2562,0.001 -2.5002,-0.248 -3.6608,-0.731 -1.1607,-0.484 -2.2153,-1.192 -3.1036,-2.085 -0.8883,-0.893 -1.5928,-1.953 -2.0734,-3.12 -0.4806,-1.167 -0.7279,-2.418 -0.7277,-3.681 V 74.765605 c -5.9049,-5e-4 -11.7521,1.1684 -17.2077,3.4401 -5.4555,2.2718 -10.4124,5.6018 -14.5879,9.7999 -4.1753803,4.1981 -7.4875003,9.1821 -9.7469803,14.667395 -2.25949,5.485 -3.42213003,11.364 -3.42162003,17.301 v 18.307 c -0.074908,7.355 1.30121003,14.652 4.04877003,21.469 2.74756,6.817 6.8120303,13.018 11.9583303,18.246 5.1464,5.228 11.2724,9.377 18.0239,12.21 6.7516,2.832 13.9946,4.29 21.3101,4.29 7.3156,0 14.5586,-1.458 21.3101,-4.29 6.7515,-2.833 12.8776,-6.982 18.0239,-12.21 5.146,-5.228 9.210998,-11.429 11.957998,-18.246 2.748,-6.817 4.124,-14.114 4.049,-21.469 V 119.974 H 65.720902 v 26.898 c 0,1.263 -0.2475,2.514 -0.7283,3.681 -0.4808,1.167 -1.1856,2.227 -2.074,3.12 -0.8885,0.893 -1.9432,1.601 -3.104,2.085 -1.1607,0.483 -2.4047,0.732 -3.661,0.731 z"
     fill="#000000"
     id="path2" />
</svg>
